<svg xmlns="http://www.w3.org/2000/svg" xmlns:xlink="http://www.w3.org/1999/xlink" id="Layer_1" x="0px" y="0px" width="1168px" height="310px" viewBox="0 0 1168 310" xml:space="preserve"><path fill-rule="evenodd" clip-rule="evenodd" fill="#FFFFFF" d="M435.141,155.336c8.483,6.946,10.672,19.012,10.576,31.546 c-0.193,25.504-0.061,51.063-1.769,76.485c-1.022,15.222-10.966,23.669-26.497,24.189c-30.102,1.005-60.234,1.084-90.354,1.386 c-16.935,0.17-33.875,0.194-50.809-0.047c-12.07-0.172-15.46-3.598-15.469-15.512c-0.07-80.95-0.07-161.9,0-242.848 c0.009-11.7,3.084-15.207,14.708-15.21c45.633-0.011,91.271-0.025,136.894,0.739c21.429,0.36,30.875,7.794,32.247,28.881 c1.819,27.979,1.112,56.198-0.06,84.25C444.258,137.626,438.739,145.841,435.141,155.336z M308.42,129.712 c28.541,0,56.574,0.161,84.599-0.343c1.946-0.034,5.373-4.935,5.451-7.647c0.495-17.487,0.124-34.997,0.308-52.494 c0.069-6.719-2.98-9.145-9.416-9.077c-16.64,0.176-33.281,0.055-49.923,0.054c-10.227,0-20.456,0-31.019,0 C308.42,83.841,308.42,106.351,308.42,129.712z M307.933,243.601c28.959,0,56.716,0.158,84.467-0.315 c2.137-0.037,5.944-4.479,6.017-6.96c0.521-17.764,0.191-35.55,0.323-53.328c0.04-5.387-2.212-7.993-7.59-7.997 c-25.808-0.01-51.616-0.16-77.421,0.171c-1.952,0.024-5.508,3.379-5.543,5.239C307.784,201.021,307.933,221.642,307.933,243.601z"></path><path fill-rule="evenodd" clip-rule="evenodd" fill="#FFFFFF" d="M15.724,151.408c0-31.888-0.041-63.777,0.043-95.667 c0.011-4.569,0.163-9.225,1.033-13.688c3.48-17.813,11.884-25.496,29.935-25.921c29.856-0.708,59.731-0.808,89.601-0.921 c14.929-0.056,29.878,0.022,44.784,0.756c23.769,1.17,33.241,11.22,33.695,35.35c0.305,16.082,0.111,32.173,0.113,48.262 c0.008,47.69,0.007,95.38-0.003,143.069c-0.003,4.309,0.1,8.63-0.188,12.923c-1.426,21.459-9.884,31.672-31.368,32.086 c-46.771,0.904-93.581,0.625-140.356-0.232c-17.442-0.32-26.939-12.966-27.136-33.455c-0.328-34.185-0.088-68.375-0.088-102.563 C15.767,151.408,15.745,151.408,15.724,151.408z M168.014,152.206c0-26.682,0.077-53.366-0.037-80.047 C167.93,61.048,167,60.23,156.312,60.216c-27.542-0.034-55.089,0.229-82.626-0.157c-8.241-0.114-11.273,2.921-11.254,10.946 c0.139,53.937,0.131,107.876,0,161.815c-0.019,7.856,2.594,11.151,11.08,11.006c27.248-0.469,54.51-0.167,81.766-0.177 c12.557-0.004,12.716-0.11,12.742-13.119C168.069,204.423,168.034,178.314,168.014,152.206z"></path><path fill-rule="evenodd" clip-rule="evenodd" fill="#FFFFFF" d="M1149.255,152.326c0,32.461,0.093,64.926-0.089,97.388 c-0.029,5.688-0.67,11.495-1.957,17.03c-2.89,12.407-11.735,19.625-25.294,20.883c-8.278,0.769-16.616,1.318-24.925,1.278 c-38.479-0.183-76.98,0.084-115.428-1.214c-21.688-0.733-30.448-11.067-31.303-33.035c-0.491-12.623-0.188-25.277-0.191-37.918 c-0.013-51.998-0.009-103.998,0.001-155.996c0-4.022-0.076-8.054,0.162-12.064c1.325-22.056,10.736-32.28,32.823-32.576 c44.501-0.601,89.021-0.594,133.526,0.014c22.456,0.306,32.335,11.286,32.556,34.511c0.32,33.898,0.082,67.799,0.082,101.7 C1149.231,152.326,1149.242,152.326,1149.255,152.326z M996.982,151.876c0.012,0,0.021,0,0.033,0 c0,27.254,0.092,54.511-0.061,81.765c-0.041,7.111,2.367,10.242,10.058,10.148c28.399-0.347,56.808-0.338,85.204,0 c7.396,0.089,10.355-2.359,10.336-9.784c-0.145-54.51-0.155-109.021-0.041-163.531c0.017-7.747-3.132-10.488-10.883-10.396 c-27.538,0.329-55.082,0.109-82.625,0.137c-10.988,0.01-11.935,0.786-11.984,11.617C996.903,98.513,996.982,125.194,996.982,151.876 z"></path><path fill-rule="evenodd" clip-rule="evenodd" fill="#FFFFFF" d="M851.479,184.183c2.462,4.51,4.178,7.71,5.943,10.88 c14.646,26.311,29.338,52.596,43.935,78.934c5.978,10.786,3.885,14.464-8.239,14.951c-31.732,1.271-31.728,1.268-47.043-26.331 c-12.945-23.323-26.095-46.532-38.719-70.025c-3.217-5.986-6.664-8.666-13.842-8.494c-21.502,0.514-21.508,0.158-21.51,21.693 c-0.001,22.968,0.066,45.938-0.045,68.906c-0.053,10.769-2.879,13.696-13.763,14.154c-6.873,0.288-13.785,0.202-20.659-0.154 c-7.808-0.404-11.908-4.325-11.718-12.695c0.302-13.202,0.07-26.413,0.07-39.62c0-68.335-0.005-136.668,0.009-205.002 c0.001-13.322,2.188-16.094,15.146-16.083c45.931,0.049,91.861,0.163,137.783,0.861c19.293,0.292,30.114,10.683,30.5,30.076 c0.719,35.875,0.758,71.784-0.038,107.655c-0.431,19.384-11.777,29.295-31.638,30.231 C869.442,184.506,861.193,184.183,851.479,184.183z M772.993,60.222c0,25.491-0.111,49.838,0.246,74.177 c0.026,1.627,3.572,4.571,5.507,4.591c25.848,0.288,51.698,0.166,77.549,0.135c4.822-0.004,7.509-2.187,7.502-7.271 c-0.027-20.969,0.031-41.938-0.037-62.907c-0.016-5.343-2.375-8.738-8.272-8.733C828.524,60.233,801.559,60.222,772.993,60.222z"></path><path fill-rule="evenodd" clip-rule="evenodd" fill="#FFFFFF" d="M537.457,195.218c0,25.468,0.006,50.115-0.003,74.762 c-0.007,17.11-1.875,18.929-19.393,18.993c-26.708,0.1-26.716,0.1-26.705-26.333c0.024-70.048-0.047-140.095,0.14-210.142 c0.069-25.892,8.887-35.945,34.771-36.474c40.444-0.827,80.922-0.446,121.375,0.131c20.201,0.288,30.638,11.208,30.924,31.423 c0.422,29.851,0.223,59.71,0.239,89.566c0.023,45.359,0.02,90.717-0.008,136.076c-0.01,12.722-2.714,15.426-15.701,15.711 c-5.737,0.126-11.499,0.246-17.219-0.108c-10.341-0.641-13.03-3.582-13.054-13.93c-0.058-24.116-0.012-48.231-0.039-72.345 c0-2.249-0.223-4.498-0.375-7.332C600.971,195.218,569.855,195.218,537.457,195.218z M632.742,148.464 c0-26.795,0.008-52.582-0.004-78.369c-0.004-7.114-3.346-10.081-10.687-9.995c-24.077,0.286-48.158,0.087-72.239,0.115 c-10.674,0.012-12.277,1.549-12.322,12.552c-0.095,22.932,0.158,45.867-0.158,68.795c-0.084,6.129,2.042,7.871,7.914,7.821 c26.658-0.225,53.317-0.082,79.979-0.131C627.439,149.248,629.656,148.801,632.742,148.464z"></path></svg>